{
    "asset" : {
        "generator" : "Khronos glTF Blender I/O v3.4.50",
        "version" : "2.0"
    },
    "scene" : 0,
    "scenes" : [
        {
            "name" : "Scene",
            "nodes" : [
                0,
                1,
                2,
                6,
                7
            ]
        }
    ],
    "nodes" : [
        {
            "mesh" : 0,
            "name" : "Chair"
        },
        {
            "mesh" : 1,
            "name" : "Cushion",
            "translation" : [
                0,
                0.06415151059627533,
                0.04495773836970329
            ]
        },
        {
            "mesh" : 2,
            "name" : "Legs2"
        },
        {
            "mesh" : 3,
            "name" : "Legs1",
            "scale" : [
                100,
                100,
                100
            ],
            "translation" : [
                326.9142761230469,
                0,
                0
            ]
        },
        {
            "mesh" : 4,
            "name" : "Legs1.001",
            "scale" : [
                100,
                100,
                100
            ],
            "translation" : [
                -289.68084716796875,
                0,
                0
            ]
        },
        {
            "mesh" : 5,
            "name" : "Legs1.003",
            "scale" : [
                100,
                100,
                100
            ]
        },
        {
            "children" : [
                3,
                4,
                5
            ],
            "mesh" : 6,
            "name" : "Legs0",
            "scale" : [
                0.009999999776482582,
                0.009999999776482582,
                0.009999999776482582
            ]
        },
        {
            "name" : "Empty"
        }
    ],
    "materials" : [
        {
            "doubleSided" : true,
            "name" : "Chair",
            "pbrMetallicRoughness" : {
                "baseColorFactor" : [
                    0.004653939977288246,
                    0.030073080211877823,
                    0.0037792674265801907,
                    1
                ],
                "metallicFactor" : 0,
                "roughnessFactor" : 0.8932384252548218
            }
        },
        {
            "doubleSided" : true,
            "name" : "Cushion",
            "pbrMetallicRoughness" : {
                "baseColorFactor" : [
                    0.0249265618622303,
                    0.12596511840820312,
                    0.020423419773578644,
                    1
                ],
                "metallicFactor" : 0,
                "roughnessFactor" : 0.8558719158172607
            }
        },
        {
            "doubleSided" : true,
            "name" : "Legs",
            "pbrMetallicRoughness" : {
                "baseColorFactor" : [
                    0.009954840876162052,
                    0.008822723291814327,
                    0.010547232814133167,
                    1
                ],
                "metallicFactor" : 0,
                "roughnessFactor" : 0.12277579307556152
            }
        },
        {
            "doubleSided" : true,
            "name" : "Legs.001",
            "pbrMetallicRoughness" : {
                "baseColorFactor" : [
                    0.009954840876162052,
                    0.008822723291814327,
                    0.010547232814133167,
                    1
                ],
                "metallicFactor" : 0,
                "roughnessFactor" : 0.12277579307556152
            }
        },
        {
            "doubleSided" : true,
            "name" : "Legs.003",
            "pbrMetallicRoughness" : {
                "baseColorFactor" : [
                    0.009954840876162052,
                    0.008822723291814327,
                    0.010547232814133167,
                    1
                ],
                "metallicFactor" : 0,
                "roughnessFactor" : 0.12277579307556152
            }
        }
    ],
    "meshes" : [
        {
            "name" : "Plane",
            "primitives" : [
                {
                    "attributes" : {
                        "POSITION" : 0,
                        "TEXCOORD_0" : 1,
                        "NORMAL" : 2
                    },
                    "indices" : 3,
                    "material" : 0
                }
            ]
        },
        {
            "name" : "Plane.001",
            "primitives" : [
                {
                    "attributes" : {
                        "POSITION" : 4,
                        "TEXCOORD_0" : 5,
                        "NORMAL" : 6
                    },
                    "indices" : 7,
                    "material" : 1
                }
            ]
        },
        {
            "name" : "Plane.003",
            "primitives" : [
                {
                    "attributes" : {
                        "POSITION" : 8,
                        "TEXCOORD_0" : 9,
                        "NORMAL" : 10
                    },
                    "indices" : 11,
                    "material" : 2
                }
            ]
        },
        {
            "name" : "Plane.002",
            "primitives" : [
                {
                    "attributes" : {
                        "POSITION" : 12,
                        "TEXCOORD_0" : 13,
                        "NORMAL" : 14
                    },
                    "indices" : 15,
                    "material" : 2
                }
            ]
        },
        {
            "name" : "Plane.004",
            "primitives" : [
                {
                    "attributes" : {
                        "POSITION" : 16,
                        "TEXCOORD_0" : 17,
                        "NORMAL" : 18
                    },
                    "indices" : 15,
                    "material" : 3
                }
            ]
        },
        {
            "name" : "Plane.006",
            "primitives" : [
                {
                    "attributes" : {
                        "POSITION" : 19,
                        "TEXCOORD_0" : 20,
                        "NORMAL" : 21
                    },
                    "indices" : 15,
                    "material" : 4
                }
            ]
        },
        {
            "name" : "Cube.001",
            "primitives" : [
                {
                    "attributes" : {
                        "POSITION" : 22,
                        "TEXCOORD_0" : 23,
                        "NORMAL" : 24
                    },
                    "indices" : 25
                }
            ]
        }
    ],
    "accessors" : [
        {
            "bufferView" : 0,
            "componentType" : 5126,
            "count" : 1814,
            "max" : [
                1.102556824684143,
                3.0652527809143066,
                1
            ],
            "min" : [
                -1.0927417278289795,
                0.6014844179153442,
                -1
            ],
            "type" : "VEC3"
        },
        {
            "bufferView" : 1,
            "componentType" : 5126,
            "count" : 1814,
            "type" : "VEC2"
        },
        {
            "bufferView" : 2,
            "componentType" : 5126,
            "count" : 1814,
            "type" : "VEC3"
        },
        {
            "bufferView" : 3,
            "componentType" : 5123,
            "count" : 2760,
            "type" : "SCALAR"
        },
        {
            "bufferView" : 4,
            "componentType" : 5126,
            "count" : 729,
            "max" : [
                0.7762526869773865,
                2.8176891803741455,
                1.0542305707931519
            ],
            "min" : [
                -0.7762526869773865,
                1.0212774276733398,
                -0.7896546125411987
            ],
            "type" : "VEC3"
        },
        {
            "bufferView" : 5,
            "componentType" : 5126,
            "count" : 729,
            "type" : "VEC2"
        },
        {
            "bufferView" : 6,
            "componentType" : 5126,
            "count" : 729,
            "type" : "VEC3"
        },
        {
            "bufferView" : 7,
            "componentType" : 5123,
            "count" : 828,
            "type" : "SCALAR"
        },
        {
            "bufferView" : 8,
            "componentType" : 5126,
            "count" : 88,
            "max" : [
                0.8669954538345337,
                0.6014844179153442,
                0.8221668004989624
            ],
            "min" : [
                -0.8669954538345337,
                2.0101666450500488e-05,
                -0.9045190811157227
            ],
            "type" : "VEC3"
        },
        {
            "bufferView" : 9,
            "componentType" : 5126,
            "count" : 88,
            "type" : "VEC2"
        },
        {
            "bufferView" : 10,
            "componentType" : 5126,
            "count" : 88,
            "type" : "VEC3"
        },
        {
            "bufferView" : 11,
            "componentType" : 5123,
            "count" : 96,
            "type" : "SCALAR"
        },
        {
            "bufferView" : 12,
            "componentType" : 5126,
            "count" : 582,
            "max" : [
                1,
                0.6014844179153442,
                1
            ],
            "min" : [
                -1,
                0.006865799427032471,
                -0.9978237152099609
            ],
            "type" : "VEC3"
        },
        {
            "bufferView" : 13,
            "componentType" : 5126,
            "count" : 582,
            "type" : "VEC2"
        },
        {
            "bufferView" : 14,
            "componentType" : 5126,
            "count" : 582,
            "type" : "VEC3"
        },
        {
            "bufferView" : 15,
            "componentType" : 5123,
            "count" : 744,
            "type" : "SCALAR"
        },
        {
            "bufferView" : 16,
            "componentType" : 5126,
            "count" : 582,
            "max" : [
                1,
                0.6014844179153442,
                1
            ],
            "min" : [
                -1,
                0.006865799427032471,
                -0.9978237152099609
            ],
            "type" : "VEC3"
        },
        {
            "bufferView" : 17,
            "componentType" : 5126,
            "count" : 582,
            "type" : "VEC2"
        },
        {
            "bufferView" : 18,
            "componentType" : 5126,
            "count" : 582,
            "type" : "VEC3"
        },
        {
            "bufferView" : 19,
            "componentType" : 5126,
            "count" : 582,
            "max" : [
                1,
                0.6014844179153442,
                1
            ],
            "min" : [
                -1,
                0.006865799427032471,
                -0.9978237152099609
            ],
            "type" : "VEC3"
        },
        {
            "bufferView" : 20,
            "componentType" : 5126,
            "count" : 582,
            "type" : "VEC2"
        },
        {
            "bufferView" : 21,
            "componentType" : 5126,
            "count" : 582,
            "type" : "VEC3"
        },
        {
            "bufferView" : 22,
            "componentType" : 5126,
            "count" : 24,
            "max" : [
                1,
                1,
                1
            ],
            "min" : [
                -1,
                -1,
                -1
            ],
            "type" : "VEC3"
        },
        {
            "bufferView" : 23,
            "componentType" : 5126,
            "count" : 24,
            "type" : "VEC2"
        },
        {
            "bufferView" : 24,
            "componentType" : 5126,
            "count" : 24,
            "type" : "VEC3"
        },
        {
            "bufferView" : 25,
            "componentType" : 5123,
            "count" : 36,
            "type" : "SCALAR"
        }
    ],
    "bufferViews" : [
        {
            "buffer" : 0,
            "byteLength" : 21768,
            "byteOffset" : 0,
            "target" : 34962
        },
        {
            "buffer" : 0,
            "byteLength" : 14512,
            "byteOffset" : 21768,
            "target" : 34962
        },
        {
            "buffer" : 0,
            "byteLength" : 21768,
            "byteOffset" : 36280,
            "target" : 34962
        },
        {
            "buffer" : 0,
            "byteLength" : 5520,
            "byteOffset" : 58048,
            "target" : 34963
        },
        {
            "buffer" : 0,
            "byteLength" : 8748,
            "byteOffset" : 63568,
            "target" : 34962
        },
        {
            "buffer" : 0,
            "byteLength" : 5832,
            "byteOffset" : 72316,
            "target" : 34962
        },
        {
            "buffer" : 0,
            "byteLength" : 8748,
            "byteOffset" : 78148,
            "target" : 34962
        },
        {
            "buffer" : 0,
            "byteLength" : 1656,
            "byteOffset" : 86896,
            "target" : 34963
        },
        {
            "buffer" : 0,
            "byteLength" : 1056,
            "byteOffset" : 88552,
            "target" : 34962
        },
        {
            "buffer" : 0,
            "byteLength" : 704,
            "byteOffset" : 89608,
            "target" : 34962
        },
        {
            "buffer" : 0,
            "byteLength" : 1056,
            "byteOffset" : 90312,
            "target" : 34962
        },
        {
            "buffer" : 0,
            "byteLength" : 192,
            "byteOffset" : 91368,
            "target" : 34963
        },
        {
            "buffer" : 0,
            "byteLength" : 6984,
            "byteOffset" : 91560,
            "target" : 34962
        },
        {
            "buffer" : 0,
            "byteLength" : 4656,
            "byteOffset" : 98544,
            "target" : 34962
        },
        {
            "buffer" : 0,
            "byteLength" : 6984,
            "byteOffset" : 103200,
            "target" : 34962
        },
        {
            "buffer" : 0,
            "byteLength" : 1488,
            "byteOffset" : 110184,
            "target" : 34963
        },
        {
            "buffer" : 0,
            "byteLength" : 6984,
            "byteOffset" : 111672,
            "target" : 34962
        },
        {
            "buffer" : 0,
            "byteLength" : 4656,
            "byteOffset" : 118656,
            "target" : 34962
        },
        {
            "buffer" : 0,
            "byteLength" : 6984,
            "byteOffset" : 123312,
            "target" : 34962
        },
        {
            "buffer" : 0,
            "byteLength" : 6984,
            "byteOffset" : 130296,
            "target" : 34962
        },
        {
            "buffer" : 0,
            "byteLength" : 4656,
            "byteOffset" : 137280,
            "target" : 34962
        },
        {
            "buffer" : 0,
            "byteLength" : 6984,
            "byteOffset" : 141936,
            "target" : 34962
        },
        {
            "buffer" : 0,
            "byteLength" : 288,
            "byteOffset" : 148920,
            "target" : 34962
        },
        {
            "buffer" : 0,
            "byteLength" : 192,
            "byteOffset" : 149208,
            "target" : 34962
        },
        {
            "buffer" : 0,
            "byteLength" : 288,
            "byteOffset" : 149400,
            "target" : 34962
        },
        {
            "buffer" : 0,
            "byteLength" : 72,
            "byteOffset" : 149688,
            "target" : 34963
        }
    ],
    "buffers" : [
        {
            "byteLength" : 149760,
            "uri" : "data:application/octet-stream;base64,"
        }
    ]
}
